<svg xmlns="http://www.w3.org/2000/svg" width="80" height="15" version="1.1" viewBox="0 0 80 15"><defs><clipPath id="b"><path d="m5 1.9336h15v11.199h-15z"/></clipPath><clipPath id="a"><path d="m4 1.9336h17v11.199h-17z"/></clipPath></defs><path d="m170.5 237.86h80v15h-80z" transform="matrix(.9875 0 0 .93335 -167.88 -221.48)" style="fill:#fff;stroke-width:1.0416;stroke:#000"/><path d="m1.9766 1.9336h76.035v11.199h-76.035z"/><path d="m1.9766 1.9453v11.199h20.078c1.293-1.6328 2.1641-3.5312 2.1641-5.5977 0-2.0547-0.85547-3.9766-2.1328-5.6016z" style="fill:#abb1aa"/><g clip-path="url(#b)"><path d="m19.289 7.5352c0.003906 3.4883-2.9883 6.3203-6.6836 6.3242-3.6953 0.003906-6.6914-2.8281-6.6953-6.3203v-0.003907c0-3.4922 2.9922-6.3242 6.6875-6.3281 3.6953-0.003906 6.6914 2.8281 6.6914 6.3203v0.007812z" style="fill:#fff"/></g><g clip-path="url(#a)"><path d="m18.039 2.3828c1.4844 1.4023 2.2227 3.1211 2.2227 5.1523 0 2.0273-0.72656 3.7266-2.1836 5.0938-1.5469 1.4375-3.3789 2.1562-5.4883 2.1562-2.082 0-3.8789-0.71094-5.3906-2.1367-1.5078-1.4297-2.2617-3.1328-2.2617-5.1133 0-1.9844 0.75391-3.6992 2.2617-5.1523 1.4727-1.4023 3.2695-2.1016 5.3906-2.1016 2.1484 0 3.9648 0.69922 5.4492 2.1016zm-9.8398 0.94531c-1.2539 1.1953-1.8789 2.5977-1.8789 4.207s0.61719 3 1.8594 4.1719c1.2422 1.1719 2.7188 1.7578 4.4336 1.7578 1.7148 0 3.207-0.58984 4.4727-1.7773 1.2031-1.0977 1.8047-2.4844 1.8047-4.1523 0-1.6562-0.61328-3.0625-1.8359-4.2188-1.2188-1.1523-2.6992-1.7305-4.4414-1.7305-1.7383 0-3.2109 0.58203-4.4141 1.7422zm3.3008 3.5c-0.19141-0.39453-0.48047-0.59375-0.85938-0.59375-0.67969 0-1.0156 0.42969-1.0156 1.293 0 0.85938 0.33594 1.2891 1.0156 1.2891 0.44531 0 0.76562-0.21094 0.95703-0.62891l0.9375 0.47266c-0.44922 0.75-1.1172 1.125-2.0117 1.125-0.69141 0-1.2422-0.19922-1.6562-0.59766-0.41797-0.40234-0.625-0.95312-0.625-1.6523 0-0.69141 0.21484-1.2383 0.64062-1.6445 0.42969-0.40625 0.96094-0.60938 1.6016-0.60938 0.94531 0 1.6211 0.35156 2.0312 1.0547zm4.4102 0c-0.19141-0.39453-0.47266-0.59375-0.84375-0.59375-0.69141 0-1.0352 0.42969-1.0352 1.293 0 0.85938 0.34375 1.2891 1.0352 1.2891 0.44922 0 0.76172-0.21094 0.94141-0.62891l0.95703 0.47266c-0.44531 0.75-1.1172 1.125-2.0078 1.125-0.6875 0-1.2383-0.19922-1.6562-0.59766-0.41016-0.40234-0.62109-0.95312-0.62109-1.6523 0-0.69141 0.21094-1.2383 0.63281-1.6445s0.95703-0.60938 1.6055-0.60938c0.94531 0 1.6211 0.35156 2.0273 1.0547z"/></g><path d="m36.695 7.5781v1.0898h2.5078v-1.0898h-2.5078z" style="fill:#fff"/><path d="m26.664 4.7344v5.5977h2.5508c0.79297 0 1.3867-0.13281 1.7734-0.39453 0.39062-0.26562 0.58594-0.66797 0.58594-1.2109 0-0.35156-0.089844-0.64844-0.27344-0.89062-0.17969-0.24219-0.4375-0.41016-0.76562-0.5 0.25781-0.09375 0.45312-0.23438 0.58984-0.42188 0.13672-0.19531 0.20312-0.42578 0.20312-0.69922 0-0.51562-0.18359-0.89453-0.55859-1.1289-0.37109-0.23438-0.96875-0.35156-1.7969-0.35156h-2.3086zm4.7773 0 2.2734 3.2383v2.3594h1.5352v-2.3594l2.2734-3.2383h-1.6836l-1.3594 1.9961-1.3594-1.9961h-1.6797zm-3.2422 0.98047h0.85156c0.24219 0 0.42578 0.050781 0.55078 0.15625 0.12891 0.097656 0.19141 0.24609 0.19141 0.4375 0 0.19531-0.0625 0.34375-0.19141 0.44141-0.125 0.10156-0.30859 0.15234-0.55078 0.15234h-0.85156v-1.1875zm0 2.168h0.90625c0.30859 0 0.54297 0.062501 0.69922 0.18359 0.15234 0.12109 0.23047 0.30469 0.23047 0.54688 0 0.24609-0.078125 0.42969-0.23438 0.55469-0.15625 0.12109-0.38672 0.18359-0.69531 0.18359h-0.90625v-1.4688z" style="fill:#fff"/><path d="m58.73 4.633c-0.71875 0-1.2734 0.14844-1.6562 0.44922-0.38281 0.30078-0.57422 0.73047-0.57422 1.2852 0 0.44531 0.13672 0.80078 0.41016 1.0625 0.27734 0.26172 0.71484 0.45313 1.3125 0.57422l0.59375 0.125c0.36328 0.074219 0.60547 0.16016 0.72265 0.25391 0.125 0.09375 0.1836 0.23047 0.1836 0.40625 0 0.19531-0.0859 0.34375-0.26563 0.44922-0.17969 0.10547-0.4375 0.15625-0.76953 0.15625s-0.67578-0.046875-1.0312-0.14062c-0.35547-0.097656-0.72266-0.24219-1.1055-0.43359v1.2187c0.38281 0.13281 0.76172 0.23438 1.1445 0.30078 0.37891 0.07031 0.76172 0.10156 1.1367 0.10156 0.80469 0 1.3984-0.14844 1.7891-0.44922 0.39063-0.30078 0.58594-0.76172 0.58594-1.3789 0-0.47266-0.14062-0.83594-0.41797-1.0898-0.28125-0.25391-0.7539-0.44531-1.418-0.57031l-0.65234-0.125c-0.3125-0.058594-0.52734-0.12891-0.64844-0.21094-0.11718-0.085938-0.17578-0.20312-0.17578-0.35156 0-0.20312 0.0859-0.34766 0.26563-0.44531 0.17578-0.09375 0.44531-0.14062 0.8125-0.14062 0.27734 0 0.57031 0.035157 0.88281 0.10547 0.3125 0.070313 0.63281 0.17187 0.96094 0.30859v-1.1836c-0.3711-0.09375-0.73047-0.16016-1.0742-0.20703-0.34766-0.046875-0.6836-0.070312-1.0117-0.070312zm5.3281 0.10156-2.207 5.5977h1.5469l0.3789-1.0195h2.4062l0.375 1.0195h1.5469l-2.2109-5.5977z" style="fill:#fff"/><path d="m65.011 5.9224 0.8125 2.2266h-1.6328z"/><path d="m52.862 7.5485v1.0898h2.5078v-1.0898z" style="fill:#fff"/><path d="m41.591 4.7702 2.4822 3.7778h0.01403v-3.7778h1.2271v5.6302h-1.3077l-2.4752-3.7678h-0.01753v3.7678h-1.2236v-5.6302z" style="fill:#fff"/><path d="m50.275 6.2707c-0.077133-0.11951-0.1753-0.22242-0.29099-0.31205-0.1157-0.08963-0.24892-0.15934-0.39617-0.20914-0.14725-0.049795-0.30151-0.073033-0.46278-0.073033-0.2945 0-0.54342 0.053114-0.75027 0.15934-0.20334 0.10955-0.37163 0.25229-0.49784 0.43488-0.12621 0.17926-0.22088 0.38508-0.28048 0.61746-0.0561 0.23238-0.08765 0.47139-0.08765 0.71705 0 0.2357 0.03156 0.46807 0.08765 0.69049 0.0596 0.22242 0.15426 0.42492 0.28048 0.60086 0.12621 0.17926 0.2945 0.32201 0.49784 0.43156 0.20685 0.10623 0.45577 0.15934 0.75027 0.15934 0.39968 0 0.71171-0.11287 0.93609-0.34524 0.22789-0.23238 0.36462-0.53779 0.4137-0.91623h1.2656c-0.03156 0.35188-0.1192 0.67057-0.25944 0.95606-0.13673 0.28217-0.32255 0.52451-0.54693 0.72369-0.22789 0.2025-0.49434 0.3552-0.79936 0.46143-0.30502 0.10291-0.64159 0.15602-1.0097 0.15602-0.45577 0-0.86246-0.07303-1.2271-0.22574-0.36462-0.14606-0.66964-0.3552-0.92206-0.61746-0.24892-0.26225-0.44175-0.57098-0.57498-0.92619-0.13323-0.3552-0.19984-0.73697-0.19984-1.1486 0-0.4216 0.06662-0.81 0.19984-1.1718 0.13322-0.35852 0.32605-0.67389 0.57498-0.94278 0.25243-0.26557 0.55744-0.47803 0.92206-0.63074 0.36462-0.1527 0.77131-0.22574 1.2271-0.22574 0.32956 0 0.63808 0.043154 0.92908 0.13279 0.29099 0.08963 0.55394 0.2191 0.78183 0.39172 0.23139 0.1693 0.42071 0.38176 0.57147 0.63406 0.15076 0.25229 0.24542 0.54111 0.28398 0.86643h-1.2656c-0.024539-0.13943-0.073625-0.27221-0.15076-0.3884z" style="fill:#fff"/></svg>