<svg xmlns="http://www.w3.org/2000/svg" width="512" height="512" enable-background="new 0 0 24 24" version="1.1" viewBox="0 0 24 24"><defs><clipPath id="a"><path d="m23 23c0-12-9.5-21-21-21v5.6c9.5 0 16 6.1 16 16zm-13 0 5.5 1e-6c0-7.8-6.3-14-14-14v5.4c5.6 8.8e-4 8.7 3.2 8.7 8.8zm-2.1-3.3a3.3 3.3 0 0 1-3.3 3.3 3.3 3.3 0 0 1-3.3-3.3 3.3 3.3 0 0 1 3.3-3.3 3.3 3.3 0 0 1 3.3 3.3" style="display:none;fill:#0e0e0e;stroke-width:.88"/><path d="m-5-5h34v34h-34zm28 28c0-12-9.5-21-21-21v5.6c9.5 0 16 6.1 16 16zm-13 0 5.5 1e-6c0-7.8-6.3-14-14-14v5.4c5.6 8.8e-4 8.7 3.2 8.7 8.8zm-2.1-3.3a3.3 3.3 0 0 0-3.3-3.3 3.3 3.3 0 0 0-3.3 3.3 3.3 3.3 0 0 0 3.3 3.3 3.3 3.3 0 0 0 3.3-3.3" class="powerclip" style="fill:#0e0e0e;stroke-width:.88"/></clipPath></defs><g fill="#ff9800"><path width="24" height="24.036" x="0" y="-.036" d="m0-0.036h24v24h-24z" clip-path="url(#a)" style="fill:#fcc92e;stroke-width:.047"/></g></svg>